<svg width="90" height="85" viewBox="0 0 90 85" fill="none" xmlns="http://www.w3.org/2000/svg">
<path opacity="0.3" d="M26.0371 70.2539C31.5415 73.6687 38.0334 75.6426 44.9873 75.6426C51.6706 75.6426 57.9267 73.8187 63.29 70.6455L67.79 78.4414C61.1028 82.3802 53.3098 84.6426 44.9873 84.6426C36.394 84.6426 28.364 82.2328 21.5342 78.0537L26.0371 70.2539ZM32.041 59.8545C35.7762 62.252 40.2193 63.6426 44.9873 63.6426C49.4844 63.6426 53.6914 62.4041 57.2891 60.252L61.2891 67.1807C56.5143 70.0133 50.9417 71.6426 44.9873 71.6426C38.7621 71.6426 32.953 69.8634 28.0381 66.7881L32.041 59.8545ZM38.0557 49.4355C40.0137 50.824 42.4043 51.6426 44.9873 51.6426C47.2981 51.6426 49.455 50.9873 51.2861 49.8555L55.2881 56.7871C52.2792 58.5989 48.7555 59.6426 44.9873 59.6426C40.9477 59.6426 37.1884 58.4443 34.0439 56.3848L38.0557 49.4355ZM53.7822 21.6768C60.2215 24.835 64.713 31.3519 64.9736 38.9443H56.9668C56.7012 34.3162 53.8123 30.3927 49.7646 28.6338L53.7822 21.6768ZM59.791 11.2676C69.8177 16.5094 76.7207 26.9081 76.9785 38.9443H68.9766C68.7172 29.8703 63.4214 22.0588 55.7861 18.2051L59.791 11.2676ZM66.2969 0C80.2088 7.49398 89.7221 22.0958 89.9785 38.9443H80.9785C80.7213 25.4274 73.0151 13.7359 61.793 7.80078L66.2969 0ZM26.6689 8.64746C16.3532 14.7572 9.35044 25.8684 9.00195 38.6426H0C0.351245 22.5373 9.16273 8.5185 22.168 0.851562L26.6689 8.64746ZM32.6699 19.041C25.9397 23.0735 21.3514 30.3099 21.0098 38.6426H13.0049C13.3517 27.3489 19.5484 17.5288 28.6689 12.1113L32.6699 19.041ZM38.6729 29.4385C35.5273 31.3891 33.3504 34.752 33.0293 38.6426H25.0127C25.3502 31.7906 29.135 25.8453 34.6699 22.5059L38.6729 29.4385Z" fill="#F04438"/>
<circle cx="44.9873" cy="39.6428" r="15" fill="#F04438"/>
<path d="M44.9855 34.5655C45.4552 34.5681 45.912 34.7194 46.2882 34.9971C46.6644 35.2749 46.9399 35.6652 47.0753 36.1094C47.3532 37.0218 46.9949 38.0056 46.1925 38.5352L49.9025 48.6026C50.0411 48.9832 49.8434 49.4048 49.4581 49.544L49.3087 49.5977C48.9232 49.7348 48.4965 49.5399 48.3556 49.1592L47.5548 46.9844H42.3663L41.5831 49.1065C41.4265 49.5279 40.9551 49.7465 40.5284 49.5938C40.3239 49.5193 40.1576 49.368 40.0655 49.1729C39.9735 48.9777 39.9633 48.7543 40.0372 48.5518L43.7345 38.5215C43.3463 38.2598 43.0539 37.8818 42.8995 37.4434C42.7452 37.005 42.737 36.5291 42.8771 36.086C43.0175 35.6433 43.2985 35.2571 43.6778 34.9834C44.0573 34.7098 44.5157 34.5629 44.9855 34.5655ZM43.4327 44.0948L42.9005 45.5401H47.0226L46.4903 44.0948H43.4327ZM43.9659 42.6485H45.9581L44.962 39.9483L43.9659 42.6485ZM52.2355 31.669C52.3765 31.6341 52.5244 31.6362 52.6642 31.6758C52.8041 31.7155 52.9305 31.7919 53.0314 31.8956C55.6679 34.5631 55.6348 38.8291 52.9552 41.4581C52.8786 41.5333 52.7875 41.5933 52.6876 41.6338C52.5876 41.6743 52.4802 41.6947 52.3722 41.6944C52.2641 41.694 52.1574 41.6721 52.0577 41.6309C51.9581 41.5897 51.8672 41.5299 51.7911 41.4541C51.7149 41.3784 51.6545 41.2883 51.6134 41.1895C51.5723 41.0907 51.5505 40.9848 51.5509 40.878C51.5513 40.7713 51.5737 40.6659 51.6153 40.5674C51.6571 40.4689 51.7182 40.379 51.795 40.3038C53.8305 38.305 53.8559 35.0609 51.8517 33.0313C51.6444 32.8245 51.5635 32.5233 51.6417 32.2413C51.722 31.959 51.9477 31.7405 52.2355 31.669ZM37.3126 31.6748C37.4524 31.6352 37.6002 31.6321 37.7413 31.667C37.8826 31.702 38.0121 31.7735 38.1163 31.8741C38.2205 31.9746 38.2954 32.1007 38.3341 32.2393C38.4143 32.5196 38.3345 32.8235 38.1251 33.0303C37.1697 33.9942 36.6363 35.2899 36.6398 36.6387C36.6383 37.3196 36.7728 37.9943 37.0372 38.6231C37.3016 39.2519 37.6904 39.8223 38.1798 40.3018C38.2566 40.377 38.3177 40.4669 38.3595 40.5655C38.4011 40.6639 38.4226 40.7694 38.423 40.876C38.4233 40.9828 38.4025 41.0888 38.3614 41.1875C38.3203 41.2864 38.26 41.3765 38.1837 41.4522C38.1075 41.528 38.0169 41.5887 37.9171 41.6299C37.8175 41.6711 37.7106 41.692 37.6027 41.6924C37.4947 41.6928 37.3871 41.6723 37.2872 41.6319C37.1872 41.5913 37.0954 41.5314 37.0187 41.4561C34.3393 38.8292 34.3063 34.5611 36.9444 31.8936C37.0453 31.7899 37.1727 31.7146 37.3126 31.6748ZM49.505 33.3331C49.613 33.3347 49.7195 33.3578 49.8185 33.4004C49.9176 33.4432 50.0075 33.5057 50.0821 33.5831C51.7712 35.3228 51.7362 38.0792 50.0021 39.7745C49.7946 39.9871 49.487 40.0696 49.1993 39.9942C49.0581 39.9565 48.9291 39.8832 48.8263 39.7803C48.7235 39.6775 48.6507 39.5491 48.6144 39.4092C48.5782 39.2691 48.5806 39.1214 48.6212 38.9825C48.6618 38.8436 48.7388 38.7177 48.8448 38.6182C49.9409 37.5473 49.9624 35.808 48.8956 34.71C48.7446 34.5543 48.6627 34.3455 48.6671 34.1299C48.6715 33.9143 48.7628 33.7092 48.92 33.5596C49.0766 33.4109 49.2878 33.3292 49.505 33.3331ZM40.4737 33.3331C40.692 33.3287 40.903 33.4105 41.0607 33.5596C41.2179 33.7092 41.3092 33.9143 41.3136 34.1299C41.3179 34.3455 41.2351 34.5543 41.0841 34.71C40.0177 35.8079 40.0391 37.5474 41.1349 38.6182C41.2898 38.7701 41.3779 38.9768 41.379 39.1924C41.38 39.4079 41.294 39.6153 41.1407 39.7686C41.0648 39.8444 40.9746 39.905 40.8751 39.9463C40.7754 39.9877 40.6679 40.0093 40.5597 40.0098C40.4516 40.0103 40.3443 39.9896 40.2443 39.9493C40.1443 39.9089 40.0534 39.8495 39.9767 39.7745C38.2425 38.0792 38.2075 35.3228 39.8966 33.5831C40.0481 33.4277 40.2554 33.3374 40.4737 33.3331Z" fill="white"/>
</svg>
